<mxfile host="Electron" modified="2022-12-08T21:55:53.570Z" agent="5.0 (Macintosh; Intel Mac OS X 13_0_0) AppleWebKit/537.36 (KHTML, like Gecko) draw.io/14.6.13 Chrome/89.0.4389.128 Electron/12.0.7 Safari/537.36" etag="t91aEMbRhNyWa9Wkh9dF" compressed="false" version="14.6.13" type="device" pages="2">
  <diagram id="avIp5-e9QsfCTjN4ckkc" name="Page-1">
    <mxGraphModel dx="994" dy="663" grid="1" gridSize="10" guides="1" tooltips="1" connect="1" arrows="1" fold="1" page="1" pageScale="1" pageWidth="1100" pageHeight="850" math="0" shadow="0">
      <root>
        <mxCell id="0" />
        <mxCell id="1" parent="0" />
        <mxCell id="t-A-gfGzMX7a-TDMndRi-1" value="Hello World" style="rounded=1;whiteSpace=wrap;html=1;verticalAlign=top;" parent="1" vertex="1">
          <mxGeometry x="260" y="280" width="200" height="130" as="geometry" />
        </mxCell>
        <mxCell id="t-A-gfGzMX7a-TDMndRi-2" value="print (&quot;Hello World&quot;)" style="rounded=0;whiteSpace=wrap;html=1;fillColor=#f8cecc;strokeColor=#b85450;" parent="1" vertex="1">
          <mxGeometry x="300" y="320" width="120" height="60" as="geometry" />
        </mxCell>
        <mxCell id="t-A-gfGzMX7a-TDMndRi-3" value="" style="ellipse;whiteSpace=wrap;html=1;aspect=fixed;fillColor=#d5e8d4;strokeColor=#82b366;" parent="1" vertex="1">
          <mxGeometry x="240" y="330" width="40" height="40" as="geometry" />
        </mxCell>
        <mxCell id="t-A-gfGzMX7a-TDMndRi-4" value="" style="ellipse;whiteSpace=wrap;html=1;aspect=fixed;fillColor=#fff2cc;strokeColor=#d6b656;" parent="1" vertex="1">
          <mxGeometry x="440" y="330" width="40" height="40" as="geometry" />
        </mxCell>
      </root>
    </mxGraphModel>
  </diagram>
  <diagram id="9CBBvY843z2sAZxNPJdO" name="Page-2">
    <mxGraphModel dx="994" dy="663" grid="1" gridSize="10" guides="1" tooltips="1" connect="1" arrows="1" fold="1" page="1" pageScale="1" pageWidth="1100" pageHeight="850" math="0" shadow="0">
      <root>
        <mxCell id="QVnK0n1lWp0DWZodIKTo-0" />
        <mxCell id="QVnK0n1lWp0DWZodIKTo-1" parent="QVnK0n1lWp0DWZodIKTo-0" />
        <mxCell id="QVnK0n1lWp0DWZodIKTo-2" value="" style="rounded=1;whiteSpace=wrap;html=1;" vertex="1" parent="QVnK0n1lWp0DWZodIKTo-1">
          <mxGeometry x="80" y="20" width="260" height="120" as="geometry" />
        </mxCell>
        <mxCell id="QVnK0n1lWp0DWZodIKTo-6" value="" style="group" vertex="1" connectable="0" parent="QVnK0n1lWp0DWZodIKTo-1">
          <mxGeometry x="110" y="60" width="200" height="60" as="geometry" />
        </mxCell>
        <mxCell id="QVnK0n1lWp0DWZodIKTo-3" value="" style="rounded=0;whiteSpace=wrap;html=1;fillColor=#f8cecc;strokeColor=#b85450;" vertex="1" parent="QVnK0n1lWp0DWZodIKTo-6">
          <mxGeometry width="200" height="60" as="geometry" />
        </mxCell>
        <mxCell id="QVnK0n1lWp0DWZodIKTo-4" value="print (&#39;Hello &#39;, end=&#39;&#39;)" style="text;html=1;strokeColor=none;fillColor=none;align=center;verticalAlign=middle;whiteSpace=wrap;rounded=0;" vertex="1" parent="QVnK0n1lWp0DWZodIKTo-6">
          <mxGeometry x="40" y="10" width="120" height="20" as="geometry" />
        </mxCell>
        <mxCell id="QVnK0n1lWp0DWZodIKTo-5" value="print (&#39;World&#39;&#39;)" style="text;html=1;strokeColor=none;fillColor=none;align=center;verticalAlign=middle;whiteSpace=wrap;rounded=0;" vertex="1" parent="QVnK0n1lWp0DWZodIKTo-6">
          <mxGeometry x="40" y="30" width="120" height="20" as="geometry" />
        </mxCell>
        <mxCell id="QVnK0n1lWp0DWZodIKTo-7" value="myfunc" style="text;html=1;strokeColor=none;fillColor=none;align=center;verticalAlign=middle;whiteSpace=wrap;rounded=0;" vertex="1" parent="QVnK0n1lWp0DWZodIKTo-1">
          <mxGeometry x="190" y="30" width="40" height="20" as="geometry" />
        </mxCell>
      </root>
    </mxGraphModel>
  </diagram>
</mxfile>
